<svg xmlns="http://www.w3.org/2000/svg" width="46" height="41" viewBox="0 0 46 41">
    <path fill="#8492A0" d="M13.7,7.9c-2.4,0-4.3,1.9-4.3,4.3s1.9,4.3,4.3,4.3s4.3-1.9,4.3-4.3S16.1,7.9,13.7,7.9z M40.2,0H5.7 C2.6,0,0,2.6,0,5.8v28.8c0,3.2,2.6,5.8,5.7,5.8h34.6c3.2,0,5.8-2.6,5.8-5.8V5.8C46,2.6,43.5,0,40.2,0z M41.7,34L29.4,17.2 c-0.2-0.4-0.7-0.7-1.3-0.7c-0.6,0-1.1,0.2-1.4,0.7l-9.6,13L13.8,26c-0.3-0.4-0.8-0.6-1.3-0.6c-0.5,0-1,0.2-1.3,0.6l-6.8,8.4 c0,0,0,0,0,0l0-28.7C4.3,5,5,4.3,5.8,4.3h34.6c0.8,0,1.4,0.6,1.4,1.4L41.7,34L41.7,34z"/>
</svg>
