<svg width="338.3" height="67" viewBox="0 0 338.3 67" xmlns="http://www.w3.org/2000/svg">
  <path d="M124.5 10.5c0 1.3-.1 2.5-.2 3.7-.1 1.2-.3 2.2-.7 3.1-.3.9-.8 1.6-1.5 2.1s-1.5.8-2.6.8c-.3 0-.6 0-.9-.1-.3-.1-.7-.2-1-.4-.3-.2-.6-.5-.8-.8-.2-.3-.4-.7-.5-1.2-.3.5-.8.8-1.5 1.2-.7.3-1.5.5-2.5.5-.6 0-1.1-.1-1.6-.2-.5-.2-1-.5-1.5-.9-.4-.5-.8-1.1-1.1-2-.3-.9-.4-2-.4-3.4 0-1.5.2-2.7.6-3.6s.9-1.7 1.5-2.2c.6-.5 1.4-.9 2.3-1.1.9-.2 1.8-.3 2.8-.3.5 0 1.1.1 1.8.2l1.8.3v10.6c0 .3.1.7.3.9.2.3.5.4.9.4.5 0 .8-.2 1.1-.5.3-.4.5-.9.6-1.5.1-.7.2-1.4.3-2.4 0-.9.1-2 .1-3.1 0-1.7-.1-3.1-.3-4.1-.2-1.1-.6-1.9-1.2-2.5-.6-.6-1.4-1-2.5-1.2-1.1-.2-2.5-.3-4.3-.3-1.7 0-3.1.2-4.2.5s-1.9.8-2.5 1.6c-.6.8-1 1.8-1.2 3.1-.2 1.3-.3 2.9-.3 4.9 0 1.8.1 3.3.3 4.5.2 1.2.6 2.2 1.1 3 .6.8 1.4 1.3 2.5 1.7 1.1.3 2.5.5 4.2.5.4 0 .9 0 1.4-.1.5 0 1-.1 1.6-.1.5 0 1-.1 1.4-.1.4 0 .8-.1 1-.1v2.4c-.3 0-.7.1-1.1.1-.4 0-.9.1-1.4.1-.5 0-1 .1-1.5.1h-1.4c-2.2 0-4-.2-5.4-.7-1.4-.4-2.5-1.1-3.4-2.1-.8-1-1.4-2.2-1.7-3.7-.3-1.5-.5-3.4-.5-5.6 0-2.4.2-4.4.6-6 .4-1.6 1-2.9 1.9-3.8.9-1 2-1.6 3.4-2 1.4-.4 3.1-.6 5.2-.6 2 0 3.7.1 5.1.4s2.5.8 3.4 1.6c.9.8 1.5 1.8 1.9 3.2.4 1.2.6 3 .6 5.2zm-8.9-2.4c-.1 0-.3-.1-.5-.1s-.5-.1-.7-.1c-.5 0-1 .1-1.5.2s-.9.3-1.3.7c-.4.3-.7.8-.9 1.4-.2.6-.3 1.4-.3 2.4 0 .9.1 1.7.2 2.2.1.6.3 1 .5 1.3.2.3.5.5.8.6s.7.2 1.1.2c.5 0 .9-.1 1.3-.2.3-.1.6-.3.8-.5.2-.2.4-.5.4-.7.1-.3.1-.5.1-.8V8.1zm26.7 6.5c0 1.9-.1 3.5-.4 4.7s-.7 2.3-1.2 3.1c-.6.8-1.3 1.3-2.3 1.6-.9.3-2.1.5-3.5.5h-1.6c-.5 0-.9-.1-1.3-.1s-.7-.1-1-.1c-.3 0-.6-.1-.9-.1V.2h2.9v8.1c1.1-1 2.3-1.5 3.8-1.5 2 0 3.4.6 4.2 1.9.9 1.4 1.3 3.3 1.3 5.9zm-5.9-5.3c-.5 0-.9.1-1.3.3-.4.2-.7.4-1 .7-.3.3-.5.6-.7.9-.2.3-.2.7-.2 1v9.7c.3 0 .6.1.9.1h1.3c.8 0 1.5-.1 2-.4.5-.3.9-.7 1.2-1.3.3-.6.5-1.3.6-2.2.1-.9.2-1.9.2-3.1 0-1.1-.1-2-.2-2.7-.1-.7-.3-1.3-.5-1.7-.2-.4-.5-.7-.9-.9-.4-.3-.9-.4-1.4-.4zm19.9 15-.2-1.4c-.5.5-1 .9-1.7 1.2-.6.3-1.4.4-2.3.4-1 0-1.8-.1-2.4-.4-.6-.3-1.1-.6-1.5-1.2-.4-.5-.6-1.2-.8-1.9-.2-.8-.2-1.7-.2-2.7V7.1h2.9v11.5c0 .5 0 1 .1 1.4s.2.8.4 1.1c.2.3.4.5.8.7.3.1.7.2 1.3.2.5 0 .9-.1 1.3-.3.4-.2.7-.4 1-.7.3-.3.5-.6.7-.9.2-.3.3-.6.3-.9V7.1h2.9v17.2h-2.6zm17.3 0-.2-1.4c-.5.5-1.1.9-1.8 1.2-.7.3-1.4.4-2.3.4-1.1 0-2-.2-2.7-.5-.7-.3-1.3-.8-1.7-1.5-.4-.7-.7-1.5-.9-2.5-.2-1-.3-2.2-.3-3.5 0-3.4.6-5.8 1.8-7.3 1.2-1.5 3.1-2.3 5.7-2.3h1.1c.3 0 .6.1.9.1V.2h2.9v24.1h-2.5zm-3.8-2.2c.5 0 1-.1 1.4-.3.4-.2.8-.4 1-.7.3-.3.5-.6.6-1 .1-.3.2-.7.2-1V9.5c-.3 0-.6-.1-.9-.1h-1.3c-.8 0-1.5.2-2 .5s-1 .8-1.3 1.4c-.3.6-.5 1.4-.7 2.3-.1.9-.2 2-.2 3.2 0 1 .1 1.9.2 2.6.1.7.3 1.2.6 1.6.3.4.6.7 1 .8.4.2.9.3 1.4.3zm21.1 2.2-.2-1.4c-.5.5-1.1.9-1.8 1.2-.7.3-1.4.4-2.3.4-1.1 0-2-.2-2.7-.5-.7-.3-1.3-.8-1.7-1.5-.4-.7-.7-1.5-.9-2.5-.2-1-.3-2.2-.3-3.5 0-3.4.6-5.8 1.8-7.3 1.2-1.5 3.1-2.3 5.7-2.3h1.1c.3 0 .6.1.9.1V.2h2.9v24.1h-2.5zm-3.7-2.2c.5 0 1-.1 1.4-.3.4-.2.8-.4 1-.7.3-.3.5-.6.6-1 .1-.3.2-.7.2-1V9.5c-.3 0-.6-.1-.9-.1h-1.3c-.8 0-1.5.2-2 .5s-1 .8-1.3 1.4c-.3.6-.5 1.4-.7 2.3-.1.9-.2 2-.2 3.2 0 1 .1 1.9.2 2.6.1.7.3 1.2.6 1.6.3.4.6.7 1 .8.3.2.8.3 1.4.3zm14-5.4c0 1.1.1 2 .3 2.7.1.7.3 1.2.6 1.6.3.4.6.6.9.8.3.1.7.2 1.2.2 1 0 1.8-.1 2.6-.2s1.4-.2 2-.4V24c-.5.2-1.2.3-2.1.4-.8.1-1.6.2-2.2.2-1 0-1.9-.1-2.6-.3-.8-.2-1.4-.6-1.9-1.2s-.9-1.5-1.2-2.7c-.3-1.2-.4-2.7-.4-4.6 0-1.6.1-2.9.4-4.1.3-1.1.7-2 1.2-2.7.5-.7 1.2-1.2 2-1.5.8-.3 1.7-.5 2.7-.5 2 0 3.4.6 4.2 1.9.9 1.3 1.3 3.1 1.3 5.3v2.6h-9zm3.3-7.4c-.6 0-1 .1-1.4.2-.4.2-.7.4-1 .8-.3.4-.4.9-.6 1.6-.1.7-.2 1.5-.3 2.5h6v-.9c0-1.3-.2-2.3-.6-3.1-.3-.7-1.1-1.1-2.1-1.1zm10.4 15V7.1h2.4l.2 1.5c1.1-1.2 2.5-1.8 4.2-1.8 1 0 1.8.1 2.5.4.7.2 1.2.6 1.6 1.1.4.5.7 1.1.9 1.9.2.8.3 1.7.3 2.7v11.3h-2.9V12.6c0-1.1-.2-1.9-.5-2.4-.4-.5-1.1-.8-2.3-.8-.5 0-.9.1-1.4.3-.4.2-.8.4-1.1.7-.3.3-.6.6-.7.9-.2.3-.3.7-.3 1v12h-2.9zm29.6-9.7c0 1.9-.1 3.5-.4 4.7s-.7 2.3-1.2 3.1c-.6.8-1.3 1.3-2.3 1.6-.9.3-2.1.5-3.5.5h-1.6c-.5 0-.9-.1-1.3-.1s-.7-.1-1-.1c-.3 0-.6-.1-.9-.1V.2h2.9v8.1c1.1-1 2.3-1.5 3.8-1.5 2 0 3.4.6 4.2 1.9.9 1.4 1.3 3.3 1.3 5.9zm-6-5.3c-.5 0-.9.1-1.3.3-.4.2-.7.4-1 .7-.3.3-.5.6-.7.9-.2.3-.2.7-.2 1v9.7c.3 0 .6.1.9.1h1.3c.8 0 1.5-.1 2-.4.5-.3.9-.7 1.2-1.3.3-.6.5-1.3.6-2.2.1-.9.2-1.9.2-3.1 0-1.1-.1-2-.2-2.7-.1-.7-.3-1.3-.5-1.7-.2-.4-.5-.7-.9-.9-.4-.3-.9-.4-1.4-.4zm11 15V7.1h2.4l.2 1.8c.4-.6.9-1.1 1.4-1.4.6-.4 1.3-.5 2.1-.5.4 0 .8 0 1.1.1.3 0 .5.1.8.1v3.1c-.3-.1-.6-.1-1-.2s-.7-.1-1-.1c-.6 0-1 .1-1.4.3-.4.2-.7.5-.9.9-.2.4-.4.8-.5 1.3-.1.5-.2.9-.2 1.4v10.6h-3zm23.6-8.9c0 1.8-.1 3.3-.4 4.5-.3 1.2-.7 2.1-1.2 2.8-.5.7-1.2 1.2-2 1.5-.8.3-1.8.4-2.8.4-1.1 0-2-.1-2.8-.4-.8-.3-1.5-.8-2-1.5-.6-.7-1-1.6-1.3-2.8-.3-1.2-.4-2.7-.4-4.5 0-2.9.5-5.1 1.6-6.4 1.1-1.4 2.7-2 4.9-2s3.9.7 4.9 2c1 1.3 1.5 3.4 1.5 6.4zm-3 .5c0-1.2-.1-2.2-.2-3.1-.1-.8-.3-1.5-.6-2s-.6-.9-1.1-1.1c-.5-.2-1-.3-1.7-.3s-1.3.1-1.7.3c-.5.2-.8.6-1.1 1.1-.3.5-.5 1.2-.6 2-.1.8-.2 1.9-.2 3.1 0 2.2.3 3.8.8 4.8s1.4 1.4 2.7 1.4c1.3 0 2.2-.5 2.7-1.4s1-2.6 1-4.8zm17.2 8.1c-.5.2-1.2.3-1.8.4-.7.1-1.3.2-1.9.2-1 0-1.9-.1-2.6-.3-.8-.2-1.4-.7-1.9-1.3-.5-.7-.9-1.6-1.1-2.8-.3-1.2-.4-2.8-.4-4.8 0-1.5.1-2.8.4-3.9.2-1.1.6-2 1.1-2.6.5-.7 1.1-1.2 1.9-1.5.8-.3 1.6-.5 2.7-.5.6 0 1.2.1 1.9.2s1.3.2 1.8.3v2.5c-.6-.1-1.2-.3-1.8-.3-.6-.1-1.3-.1-2.2-.1-.5 0-.9.1-1.3.3-.3.2-.6.6-.9 1.1-.2.5-.4 1.2-.5 2-.1.8-.2 1.9-.2 3.2 0 1.3.1 2.3.2 3.1.1.8.3 1.4.6 1.8.2.4.5.7.9.8.3.1.7.2 1.2.2.9 0 1.7-.1 2.3-.2.6-.1 1.2-.2 1.7-.3V24zm13.3.3-4.6-8.6-1 1.2v7.4h-3V.2h2.9v13.1l5.3-6.2h3.6l-5.8 6.6 6 10.6h-3.4zM112.9 60.6c-.2 0-.5.1-.8.2-.4.1-.7.1-1.1.2-.4.1-.8.1-1.2.1-.4 0-.7.1-1 .1-1.3 0-2.4-.2-3.4-.5s-1.8-1-2.4-1.9c-.6-.9-1.1-2.2-1.4-3.8-.3-1.6-.4-3.8-.4-6.4 0-2.6.2-4.7.5-6.3.3-1.6.9-2.8 1.5-3.6.7-.8 1.5-1.4 2.5-1.6 1-.3 2.2-.4 3.5-.4.2 0 .5 0 .9.1.4 0 .7.1 1.1.1.4 0 .7.1 1 .2.3.1.5.1.7.2v4.2c-.6-.1-1.3-.3-2-.4-.8-.1-1.5-.2-2.1-.2-.5 0-.9.1-1.3.3-.4.2-.6.5-.9 1.1-.2.6-.4 1.4-.5 2.4-.1 1.1-.2 2.5-.2 4.3 0 1.8.1 3.2.2 4.3.1 1.1.3 1.9.5 2.5.2.6.5 1 .9 1.2.4.2.8.3 1.3.3.7 0 1.5-.1 2.3-.2.8-.1 1.4-.2 1.9-.3v3.8zm17.6-8.6c0 1.8-.2 3.3-.5 4.5-.3 1.2-.8 2.1-1.4 2.8-.6.7-1.4 1.2-2.3 1.5-.9.3-2 .4-3.2.4s-2.3-.1-3.2-.4c-.9-.3-1.7-.8-2.3-1.5-.6-.7-1.1-1.6-1.4-2.8-.3-1.2-.5-2.7-.5-4.5 0-2.9.6-5.1 1.7-6.4 1.2-1.4 3-2 5.6-2 2.6 0 4.5.7 5.7 2 1.2 1.3 1.8 3.4 1.8 6.4zm-4.7.5c0-1 0-1.8-.1-2.5s-.2-1.2-.5-1.6c-.2-.4-.5-.7-.8-.9s-.8-.3-1.3-.3-.9.1-1.3.3c-.3.2-.6.5-.8.9-.2.4-.4 1-.4 1.6-.1.7-.1 1.5-.1 2.5s0 1.8.1 2.4c.1.6.2 1.1.4 1.5.2.4.5.6.8.8s.8.2 1.3.2 1-.1 1.3-.2c.4-.2.6-.4.8-.8.2-.4.4-.9.4-1.5.1-.6.2-1.4.2-2.4zm8.6 8.4V43.7h3.7l.3 1.3c.5-.5 1.1-.9 1.8-1.2s1.5-.4 2.3-.4c1.2 0 2.1.1 2.9.4.7.3 1.3.7 1.7 1.3.4.6.7 1.3.8 2.1.1.8.2 1.9.2 3v10.7h-4.6V50.2c0-1.1-.2-1.9-.5-2.3-.3-.4-.8-.5-1.4-.5-.9 0-1.5.3-1.9.8-.4.5-.7 1.1-.7 1.6v11.1h-4.6zm23.3-13.2v8.1c0 .6.1.9.3 1.2.2.2.6.4 1.1.4.4 0 .8 0 1.2-.1.4-.1.7-.1 1-.2v3.8c-.1 0-.3.1-.6.1-.3.1-.6.1-.9.1-.3 0-.7.1-1.1.1-.4 0-.7.1-1 .1-1 0-1.7-.2-2.3-.5-.6-.3-1.1-.7-1.4-1.2-.3-.5-.6-1.1-.7-1.8-.1-.7-.2-1.4-.2-2.1v-7.9h-2.2v-4h2.2v-4.1h4.6v4.1h3.4v4h-3.4zm6.7 13.2V43.7h3.7l.3 1.5c.5-.6 1-1 1.6-1.3.6-.3 1.3-.5 2-.5.5 0 1.1.1 1.6.2v4.5c-.3-.1-.6-.1-.8-.2-.3 0-.6-.1-.9-.1-.6 0-1 .1-1.4.4-.4.3-.7.7-.9 1.1-.2.5-.4 1-.5 1.6-.1.6-.1 1.2-.1 1.8v8h-4.6zm24 0c-.5 0-1-.1-1.6-.3-.6-.2-1.1-.6-1.4-1.1-.4.5-1 .9-1.7 1.3-.7.3-1.6.5-2.8.5-.8 0-1.5-.1-2.1-.3-.6-.2-1.2-.5-1.7-.9s-.8-1-1.1-1.7c-.3-.7-.4-1.6-.4-2.6 0-2.1.6-3.6 1.9-4.4 1.2-.9 3.1-1.3 5.4-1.3h1.5v-.7c0-.7-.2-1.2-.5-1.5-.3-.4-.9-.5-1.8-.5-1 0-1.9.1-2.7.2-.8.1-1.7.3-2.6.6v-3.9c.3-.1.7-.2 1.1-.3.4-.1.9-.2 1.4-.2.5-.1 1-.1 1.4-.2.5 0 .9-.1 1.4-.1 1.5 0 2.6.1 3.5.4.9.2 1.6.6 2.1 1.1.5.5.8 1.1 1 1.9.2.8.3 1.7.3 2.7v6.8c0 .3.1.6.3.8.2.2.5.3 1.1.3v3.4h-2zm-6.2-3.5c.5 0 .9-.1 1.2-.3.3-.2.5-.4.7-.6.2-.3.3-.5.3-.8.1-.3.1-.5.1-.8v-1.5h-1.7c-.7 0-1.3.2-1.8.5s-.7.9-.7 1.6c0 .5.1 1 .4 1.3.3.4.8.6 1.5.6zm22.6-1.7c0 1.1-.2 1.9-.5 2.6-.3.7-.8 1.3-1.4 1.7-.6.4-1.3.7-2.2.9-.8.2-1.8.3-2.8.3-.4 0-.9 0-1.3-.1-.5 0-.9-.1-1.3-.1-.4-.1-.8-.1-1.2-.2-.4-.1-.6-.1-.9-.2v-3.9c.5.1 1.1.2 1.8.4.7.1 1.5.2 2.3.2.8 0 1.5-.1 2-.3.5-.2.8-.6.8-1.2 0-.5-.1-.9-.4-1.2-.3-.3-.9-.5-1.7-.7-1.8-.3-3-.9-3.7-1.8-.7-.9-1.1-2-1.1-3.5 0-1.9.6-3.3 1.8-4.1 1.2-.8 3-1.2 5.4-1.2.3 0 .7 0 1.1.1.4 0 .8.1 1.1.2.4.1.7.1 1 .2.3.1.5.1.7.2v3.9c-.5-.2-1.1-.3-1.7-.4-.6-.1-1.4-.2-2.4-.2-.8 0-1.5.1-1.8.3-.4.2-.5.6-.5 1.1 0 .4.2.7.5.9.4.2.9.4 1.7.5 1.8.3 3 .9 3.7 1.8.7 1 1 2.2 1 3.8zm8.9-8v8.1c0 .6.1.9.3 1.2.2.2.6.4 1.1.4.4 0 .8 0 1.2-.1.4-.1.7-.1 1-.2v3.8c-.1 0-.3.1-.6.1-.3.1-.6.1-.9.1-.3 0-.7.1-1.1.1-.4 0-.7.1-1 .1-1 0-1.7-.2-2.3-.5-.6-.3-1.1-.7-1.4-1.2-.3-.5-.6-1.1-.7-1.8-.1-.7-.2-1.4-.2-2.1v-7.9h-2.2v-4h2.2v-4.1h4.6v4.1h3.4v4h-3.4zm18.3 6.1c0 1.6-.2 2.9-.6 3.9-.4 1-1 1.7-1.6 2.3-.7.5-1.5.9-2.5 1s-2 .2-3.2.2h-1.2c-.4 0-.9-.1-1.3-.1s-.9-.1-1.3-.2-.8-.1-1-.2v-4.1c.3.1.6.1 1 .2s.8.1 1.2.2c.4 0 .8.1 1.2.1.4 0 .8.1 1.1.1 1.1 0 1.9-.2 2.6-.7.6-.4.9-1.2.9-2.3 0-.6-.1-1.1-.2-1.6-.1-.4-.3-.8-.6-1.1-.3-.3-.6-.5-.9-.7-.4-.2-.8-.3-1.2-.4-1.9-.4-3.3-1.1-4.1-2.2-.8-1.1-1.2-2.7-1.2-4.7 0-1.3.2-2.4.5-3.2.4-.9.9-1.6 1.6-2.1.7-.6 1.6-.9 2.6-1.2 1-.2 2.2-.4 3.5-.4h1.1c.4 0 .8.1 1.2.1.4.1.8.1 1.1.2.4.1.7.1.9.2v4.1c-.3-.1-.6-.1-1-.2s-.8-.1-1.2-.2c-.4-.1-.8-.1-1.3-.1H227c-1 0-1.7.2-2.3.6-.5.4-.8 1-.8 1.9 0 .5 0 1 .1 1.4.1.4.2.6.4.9.2.2.5.4.8.5.3.1.8.3 1.3.4.8.2 1.6.4 2.3.7.7.3 1.3.8 1.8 1.4.5.6.9 1.3 1.1 2.2.2.7.3 1.8.3 3.1zm19.3 7.1h-6l-1.9-8.5-2 8.5h-5.8L233 43.7h4.6l1.6 13.1 2.5-10h4.1l2.3 10 1.6-13.1h4.3l-2.7 17.2zm5.2-20.1v-4h4.9v4h-4.9zm.2 20.1V43.7h4.6v17.2h-4.6zM271 47.7v8.1c0 .6.1.9.3 1.2.2.2.6.4 1.1.4.4 0 .8 0 1.2-.1.4-.1.7-.1 1-.2v3.8c-.1 0-.3.1-.6.1-.3.1-.6.1-.9.1-.3 0-.7.1-1.1.1-.4 0-.7.1-1 .1-1 0-1.7-.2-2.3-.5-.6-.3-1.1-.7-1.4-1.2-.3-.5-.6-1.1-.7-1.8-.1-.7-.2-1.4-.2-2.1v-7.9h-2.2v-4h2.2v-4.1h4.6v4.1h3.4v4H271zm17.1 13c-.5.2-1.2.3-1.9.4-.7.1-1.4.1-2 .1-1.1 0-2.1-.1-3-.3-.9-.2-1.6-.7-2.2-1.3-.6-.7-1-1.6-1.3-2.8-.3-1.2-.5-2.8-.5-4.8 0-3.1.6-5.3 1.8-6.6 1.2-1.3 2.9-2 5.2-2 .6 0 1.2.1 2 .2s1.4.2 1.9.3v4c-.3-.1-.6-.1-.9-.2-.3-.1-.5-.1-.8-.2-.3 0-.6-.1-.9-.1h-1.1c-.4 0-.7.1-1 .2-.3.1-.6.4-.8.8-.2.4-.4.9-.5 1.6-.1.7-.2 1.6-.2 2.7 0 1.7.2 2.9.6 3.6.4.7 1 1 1.8 1 .9 0 1.6-.1 2.2-.2.6-.1 1.1-.2 1.6-.3v3.9zm3.6.2v-24h4.6v7.7c.5-.4 1-.7 1.6-.9.6-.2 1.2-.3 2-.3 1.2 0 2.1.1 2.9.4.7.3 1.3.7 1.7 1.3.4.6.7 1.3.8 2.1.1.8.2 1.9.2 3v10.7h-4.6V50.2c0-1.1-.2-1.9-.5-2.3-.3-.4-.8-.5-1.4-.5-.9 0-1.5.3-1.9.8-.4.5-.7 1.1-.7 1.6v11.1h-4.7zm17.5 0v-4.5h5.2v4.5h-5.2zm13.6.5c0 1.1-.1 2-.3 2.7-.2.7-.5 1.3-1 1.7-.4.4-1 .7-1.7.9-.7.2-1.5.3-2.5.3-.6 0-1.1 0-1.5-.1-.5 0-.9-.1-1.4-.1V63c.3 0 .7.1 1.1.1h1.1c.6 0 1-.1 1.3-.3.2-.2.3-.6.3-1.2V43.7h4.6v17.7zm-4.7-20.6v-4h4.9v4h-4.9zm20.2 14.9c0 1.1-.2 1.9-.5 2.6-.3.7-.8 1.3-1.4 1.7-.6.4-1.3.7-2.2.9-.8.2-1.8.3-2.8.3-.4 0-.9 0-1.3-.1-.5 0-.9-.1-1.3-.1-.4-.1-.8-.1-1.2-.2-.4-.1-.6-.1-.9-.2v-3.9c.5.1 1.1.2 1.8.4.7.1 1.5.2 2.3.2.8 0 1.5-.1 2-.3.5-.2.8-.6.8-1.2 0-.5-.1-.9-.4-1.2-.3-.3-.9-.5-1.7-.7-1.8-.3-3-.9-3.7-1.8-.7-.9-1.1-2-1.1-3.5 0-1.9.6-3.3 1.8-4.1 1.2-.8 3-1.2 5.4-1.2.3 0 .7 0 1.1.1s.8.1 1.1.2c.4.1.7.1 1 .2.3.1.5.1.7.2v3.9c-.5-.2-1.1-.3-1.7-.4-.6-.1-1.4-.2-2.4-.2-.8 0-1.5.1-1.8.3-.4.2-.5.6-.5 1.1 0 .4.2.7.5.9.4.2.9.4 1.7.5 1.8.3 3 .9 3.7 1.8.6 1 1 2.2 1 3.8z"/>
  <path fill="#0072BC" d="M43.2 7.7c6.7 1 12.7-2.3 19.5-2 6.7.3 14.1 4.1 16.6 10.1 2.4 5.9-.1 13.8-3.2 21.1-3 7.2-6.6 13.7-12.1 17s-12.8 3.1-18.2.5c-5.5-2.6-9-7.7-17-10.1-8-2.4-20.3-2.1-25.6-6.9C-2 32.6-.2 22.9 4 15.1 8.2 7.5 14.9 1.8 22 1.7c7.1-.3 14.4 5 21.2 6z"/>
  <path fill="#FFF" d="M25.1 33.7c-.3 0-.7-.1-1.2-.2-.4-.1-.8-.4-1-.9-.3.4-.8.7-1.3.9-.5.2-1.2.3-2.1.3-.6 0-1.1-.1-1.6-.2s-.9-.4-1.3-.7c-.4-.3-.6-.7-.8-1.3-.2-.5-.3-1.2-.3-2 0-1.6.5-2.7 1.4-3.3.9-.7 2.3-1 4.1-1h1.2V25c0-.5-.1-.9-.4-1.2-.3-.3-.7-.4-1.4-.4s-1.4.1-2.1.2c-.6.1-1.3.3-1.9.5v-3c.2-.1.5-.1.9-.2.3-.1.7-.1 1-.2.4-.1.7-.1 1.1-.1h1c1.1 0 2 .1 2.7.3.7.2 1.2.5 1.6.8.4.4.6.9.8 1.5.1.6.2 1.3.2 2.1v5.1c0 .3.1.5.2.6.1.1.4.2.8.2v2.6h-1.6zm-4.6-2.6c.4 0 .7-.1.9-.2.2-.1.4-.3.5-.5l.3-.6c0-.2.1-.4.1-.6V28H21c-.6 0-1 .1-1.3.4-.3.2-.5.7-.5 1.2 0 .4.1.7.3 1 .1.3.4.5 1 .5zm8.8 2.6v-2.9h3v-12L29 20.1v-3.2l3-1.3h3.7v15.2h2.5v2.9h-8.9zm12.2 0v-2.9h3v-12l-3.3 1.3v-3.2l3-1.3H48v15.2h2.5v2.9h-9zm19.3 1.1c-.6 2.3-1.8 3.5-3.7 3.5h-1.9c-.2 0-.3 0-.4-.1v-2.9c.4.1.8.1 1.3.1.7 0 1.1-.4 1.3-1.1l.1-.5h-.9l-4.1-13h3.7l2.5 10.1 2.2-10.1h3.3l-3.4 14z"/>
</svg>
