<svg xmlns="http://www.w3.org/2000/svg" width="323.9" height="66" viewBox="0 0 323.9 66">
<path fill="#FFFFFF" stroke="#E7E7E7" d="M307.6,65.5H16.3c-8.7,0-15.8-7.1-15.8-15.8V16.3
	c0-8.7,7.1-15.8,15.8-15.8h291.3c8.7,0,15.8,7.1,15.8,15.8v33.4C323.4,58.4,316.3,65.5,307.6,65.5z"/>
<path fill="#2B3945" d="M78.7,46.1c0,0.1,0,0.2,0,0.3c0,0.1,0,0.2,0.1,0.2c0,0.1,0.1,0.1,0.2,0.1c0.2,0,0.4-0.1,0.6-0.2
	c0.2-0.1,0.4-0.3,0.5-0.5c0.1-0.2,0.3-0.5,0.4-0.8s0.1-0.6,0.1-1c0-0.5-0.1-1-0.3-1.4c-0.2-0.4-0.5-0.8-0.8-1
	c-0.3-0.3-0.7-0.5-1.2-0.6c-0.4-0.1-0.9-0.2-1.5-0.2c-0.6,0-1.1,0.1-1.6,0.3c-0.5,0.2-0.9,0.5-1.2,0.8c-0.3,0.4-0.6,0.8-0.8,1.3
	s-0.3,1-0.3,1.6c0,0.6,0.1,1.1,0.3,1.6c0.2,0.5,0.5,0.9,0.8,1.3c0.4,0.3,0.8,0.6,1.3,0.8c0.5,0.2,1,0.3,1.6,0.3
	c0.6,0,1.1-0.1,1.6-0.3c0.5-0.2,0.9-0.5,1.3-0.8H81c-0.5,0.7-1.1,1.3-1.8,1.6S77.7,50,76.9,50c-0.7,0-1.4-0.1-2-0.4
	c-0.6-0.3-1.2-0.6-1.7-1.1c-0.5-0.5-0.9-1-1.1-1.6c-0.3-0.6-0.4-1.3-0.4-2c0-0.7,0.1-1.4,0.4-2c0.3-0.6,0.6-1.2,1.1-1.6
	c0.5-0.5,1-0.8,1.6-1.1s1.3-0.4,2-0.4c0.6,0,1.2,0.1,1.8,0.3s1.1,0.5,1.5,0.8s0.8,0.8,1,1.3s0.4,1.1,0.4,1.7c0,0.7-0.1,1.3-0.4,1.8
	s-0.5,0.9-0.9,1.2c-0.3,0.3-0.7,0.6-1.1,0.7c-0.4,0.1-0.6,0.2-0.9,0.2c-0.3,0-0.5-0.1-0.7-0.2c-0.2-0.1-0.3-0.3-0.3-0.6h0
	c-0.2,0.3-0.4,0.5-0.6,0.6c-0.3,0.1-0.5,0.2-0.8,0.2s-0.6-0.1-0.8-0.2s-0.5-0.3-0.7-0.5c-0.2-0.2-0.3-0.5-0.5-0.7
	c-0.1-0.3-0.2-0.6-0.2-0.9c0-0.4,0.1-0.8,0.2-1.3s0.3-0.8,0.6-1.1c0.3-0.3,0.6-0.6,0.9-0.8s0.8-0.3,1.2-0.3c0.3,0,0.6,0.1,0.9,0.2
	s0.5,0.4,0.7,0.7l0.2-0.7h1.1l-0.9,3.5C78.7,45.9,78.7,46,78.7,46.1z M75.4,46.3c0.2,0.2,0.5,0.3,0.8,0.3c0.2,0,0.5-0.1,0.7-0.2
	c0.2-0.1,0.4-0.3,0.5-0.5c0.1-0.2,0.3-0.4,0.3-0.7c0.1-0.2,0.1-0.5,0.1-0.7c0-0.3-0.1-0.6-0.3-0.8s-0.5-0.3-0.7-0.3
	c-0.2,0-0.5,0.1-0.7,0.2c-0.2,0.1-0.4,0.3-0.5,0.5c-0.1,0.2-0.3,0.4-0.3,0.6c-0.1,0.2-0.1,0.5-0.1,0.7
	C75.1,45.8,75.2,46.1,75.4,46.3z M87.5,40c0.5,0,0.9,0,1.3,0.1c0.4,0.1,0.7,0.2,1,0.4c0.3,0.2,0.5,0.4,0.6,0.7s0.2,0.7,0.2,1.1
	c0,0.5-0.1,0.9-0.3,1.2c-0.2,0.3-0.6,0.6-1,0.8c0.6,0.2,1,0.5,1.3,0.9c0.3,0.4,0.4,1,0.4,1.6c0,0.5-0.1,0.9-0.3,1.3
	c-0.2,0.4-0.4,0.7-0.8,0.9s-0.7,0.4-1.1,0.5s-0.8,0.2-1.3,0.2H83V40H87.5z M87.3,44c0.4,0,0.7-0.1,0.9-0.3c0.2-0.2,0.4-0.5,0.4-0.9
	c0-0.2,0-0.4-0.1-0.6c-0.1-0.1-0.2-0.3-0.3-0.3c-0.1-0.1-0.3-0.1-0.5-0.2c-0.2,0-0.4,0-0.6,0h-2V44H87.3z M87.4,48.1
	c0.2,0,0.4,0,0.6-0.1c0.2,0,0.4-0.1,0.5-0.2c0.1-0.1,0.3-0.2,0.3-0.4c0.1-0.2,0.1-0.4,0.1-0.6c0-0.5-0.1-0.9-0.4-1.1
	c-0.3-0.2-0.7-0.3-1.1-0.3h-2.3v2.7H87.4z M99.7,49c-0.7,0.6-1.8,1-3,1c-1.3,0-2.3-0.3-3.1-1c-0.7-0.6-1.1-1.6-1.1-2.9v-6h2.1v6
	c0,0.3,0,0.5,0.1,0.8c0,0.3,0.1,0.5,0.3,0.7s0.3,0.4,0.6,0.5s0.6,0.2,1,0.2c0.8,0,1.3-0.2,1.6-0.5c0.3-0.3,0.4-0.9,0.4-1.6v-6h2.1v6
	C100.8,47.4,100.4,48.4,99.7,49z M106.8,40c0.6,0,1.2,0.1,1.7,0.3c0.5,0.2,1,0.5,1.4,0.9c0.4,0.4,0.7,0.9,0.9,1.5
	c0.2,0.6,0.3,1.3,0.3,2.1c0,0.7-0.1,1.4-0.3,2s-0.5,1.1-0.8,1.6c-0.4,0.4-0.8,0.8-1.4,1c-0.5,0.2-1.2,0.4-1.9,0.4h-4.2V40H106.8z
	 M106.7,48c0.3,0,0.6,0,0.9-0.1c0.3-0.1,0.5-0.3,0.8-0.5c0.2-0.2,0.4-0.5,0.5-0.9c0.1-0.4,0.2-0.8,0.2-1.4c0-0.5,0-0.9-0.1-1.3
	c-0.1-0.4-0.3-0.7-0.5-1c-0.2-0.3-0.5-0.5-0.9-0.6c-0.4-0.1-0.8-0.2-1.3-0.2h-1.5V48H106.7z M116.9,40c0.6,0,1.2,0.1,1.7,0.3
	c0.5,0.2,1,0.5,1.4,0.9c0.4,0.4,0.7,0.9,0.9,1.5c0.2,0.6,0.3,1.3,0.3,2.1c0,0.7-0.1,1.4-0.3,2s-0.5,1.1-0.8,1.6
	c-0.4,0.4-0.8,0.8-1.4,1c-0.5,0.2-1.2,0.4-1.9,0.4h-4.2V40H116.9z M116.8,48c0.3,0,0.6,0,0.9-0.1c0.3-0.1,0.5-0.3,0.8-0.5
	c0.2-0.2,0.4-0.5,0.5-0.9c0.1-0.4,0.2-0.8,0.2-1.4c0-0.5,0-0.9-0.1-1.3c-0.1-0.4-0.3-0.7-0.5-1c-0.2-0.3-0.5-0.5-0.9-0.6
	c-0.4-0.1-0.8-0.2-1.3-0.2h-1.5V48H116.8z M130.1,40v1.8H125v2.1h4.7v1.7H125V48h5.2v1.8h-7.4V40H130.1z M133.8,40l4.1,6.5h0V40h2
	v9.7h-2.1l-4-6.5h0v6.5h-2V40H133.8z M146.3,40c0.5,0,0.9,0,1.3,0.1c0.4,0.1,0.7,0.2,1,0.4c0.3,0.2,0.5,0.4,0.6,0.7s0.2,0.7,0.2,1.1
	c0,0.5-0.1,0.9-0.3,1.2c-0.2,0.3-0.6,0.6-1,0.8c0.6,0.2,1,0.5,1.3,0.9c0.3,0.4,0.4,1,0.4,1.6c0,0.5-0.1,0.9-0.3,1.3
	c-0.2,0.4-0.4,0.7-0.8,0.9s-0.7,0.4-1.1,0.5s-0.8,0.2-1.3,0.2h-4.7V40H146.3z M146,44c0.4,0,0.7-0.1,0.9-0.3
	c0.2-0.2,0.4-0.5,0.4-0.9c0-0.2,0-0.4-0.1-0.6c-0.1-0.1-0.2-0.3-0.3-0.3c-0.1-0.1-0.3-0.1-0.5-0.2c-0.2,0-0.4,0-0.6,0h-2V44H146z
	 M146.2,48.1c0.2,0,0.4,0,0.6-0.1c0.2,0,0.4-0.1,0.5-0.2c0.1-0.1,0.3-0.2,0.3-0.4c0.1-0.2,0.1-0.4,0.1-0.6c0-0.5-0.1-0.9-0.4-1.1
	c-0.3-0.2-0.7-0.3-1.1-0.3h-2.3v2.7H146.2z M156.6,40c0.4,0,0.8,0.1,1.2,0.2c0.3,0.1,0.6,0.3,0.9,0.6s0.4,0.5,0.6,0.9
	c0.1,0.3,0.2,0.7,0.2,1c0,0.6-0.1,1.1-0.4,1.5c-0.2,0.4-0.6,0.7-1.2,1v0c0.3,0.1,0.5,0.2,0.7,0.3s0.3,0.3,0.4,0.5
	c0.1,0.2,0.2,0.4,0.2,0.7s0.1,0.5,0.1,0.7c0,0.2,0,0.3,0,0.5c0,0.2,0,0.4,0,0.6c0,0.2,0.1,0.4,0.1,0.6c0,0.2,0.1,0.4,0.2,0.5h-2.1
	c-0.1-0.3-0.2-0.7-0.2-1.1c0-0.4-0.1-0.8-0.1-1.2c-0.1-0.5-0.2-0.9-0.5-1.1c-0.2-0.2-0.6-0.4-1.2-0.4h-2.1v3.8h-2.1V40H156.6z
	 M155.8,44.4c0.5,0,0.9-0.1,1.1-0.3s0.4-0.6,0.4-1.1c0-0.5-0.1-0.8-0.4-1s-0.6-0.3-1.1-0.3h-2.3v2.7H155.8z M161.1,42.9
	c0.2-0.6,0.5-1.2,0.9-1.6c0.4-0.5,0.9-0.8,1.5-1.1c0.6-0.3,1.3-0.4,2-0.4c0.8,0,1.4,0.1,2,0.4c0.6,0.3,1.1,0.6,1.5,1.1
	c0.4,0.5,0.7,1,0.9,1.6c0.2,0.6,0.3,1.3,0.3,2c0,0.7-0.1,1.4-0.3,2c-0.2,0.6-0.5,1.1-0.9,1.6c-0.4,0.5-0.9,0.8-1.5,1.1
	c-0.6,0.3-1.3,0.4-2,0.4c-0.7,0-1.4-0.1-2-0.4c-0.6-0.3-1.1-0.6-1.5-1.1c-0.4-0.5-0.7-1-0.9-1.6s-0.3-1.3-0.3-2
	C160.7,44.2,160.8,43.5,161.1,42.9z M163,46.1c0.1,0.4,0.2,0.7,0.5,1c0.2,0.3,0.5,0.6,0.8,0.7c0.3,0.2,0.7,0.3,1.2,0.3
	s0.9-0.1,1.2-0.3c0.3-0.2,0.6-0.4,0.8-0.7c0.2-0.3,0.4-0.7,0.5-1s0.1-0.8,0.1-1.2c0-0.4,0-0.8-0.1-1.2c-0.1-0.4-0.2-0.8-0.5-1.1
	c-0.2-0.3-0.5-0.6-0.8-0.7c-0.3-0.2-0.7-0.3-1.2-0.3s-0.9,0.1-1.2,0.3c-0.3,0.2-0.6,0.4-0.8,0.7c-0.2,0.3-0.4,0.7-0.5,1.1
	c-0.1,0.4-0.1,0.8-0.1,1.2C162.9,45.3,162.9,45.7,163,46.1z M178,42.6c-0.1-0.2-0.3-0.4-0.5-0.5c-0.2-0.2-0.4-0.3-0.6-0.4
	c-0.2-0.1-0.5-0.1-0.8-0.1c-0.5,0-0.9,0.1-1.2,0.3c-0.3,0.2-0.6,0.4-0.8,0.7c-0.2,0.3-0.4,0.7-0.5,1.1c-0.1,0.4-0.1,0.8-0.1,1.2
	c0,0.4,0,0.8,0.1,1.2s0.2,0.7,0.5,1c0.2,0.3,0.5,0.6,0.8,0.7c0.3,0.2,0.7,0.3,1.2,0.3c0.7,0,1.2-0.2,1.5-0.6
	c0.4-0.4,0.6-0.9,0.7-1.6h2.1c-0.1,0.6-0.2,1.2-0.4,1.6c-0.2,0.5-0.5,0.9-0.9,1.3c-0.4,0.3-0.8,0.6-1.3,0.8c-0.5,0.2-1,0.3-1.6,0.3
	c-0.7,0-1.4-0.1-2-0.4c-0.6-0.3-1.1-0.6-1.5-1.1c-0.4-0.5-0.7-1-0.9-1.6s-0.3-1.3-0.3-2c0-0.7,0.1-1.4,0.3-2
	c0.2-0.6,0.5-1.2,0.9-1.6c0.4-0.5,0.9-0.8,1.5-1.1c0.6-0.3,1.3-0.4,2-0.4c0.5,0,1,0.1,1.5,0.2c0.5,0.2,0.9,0.4,1.3,0.7
	c0.4,0.3,0.7,0.7,0.9,1.1c0.2,0.4,0.4,0.9,0.5,1.5h-2.1C178.2,43.1,178.1,42.8,178,42.6z M184,40v4l3.8-4h2.7l-3.8,3.8l4.2,5.9h-2.7
	l-2.9-4.4l-1.2,1.2v3.1h-2.1V40H184z M75.6,26.6c0,0.8,0.1,1.5,0.3,2s0.5,1,0.9,1.3c0.4,0.3,0.9,0.4,1.5,0.4c0.5,0,0.9-0.1,1.3-0.3
	s0.7-0.5,0.9-0.9c0.2-0.4,0.3-0.8,0.3-1.3h3.3c0,0.1,0,0.1,0,0.2s0,0.1,0,0.2c0,1-0.3,1.8-0.8,2.6c-0.5,0.7-1.2,1.3-2.1,1.7
	s-1.9,0.6-3,0.6c-1.3,0-2.5-0.3-3.4-0.8c-0.9-0.5-1.6-1.3-2.1-2.3c-0.5-1-0.7-2.2-0.7-3.5V25c0-1.4,0.2-2.5,0.7-3.5
	c0.5-1,1.2-1.8,2.1-2.3c0.9-0.5,2.1-0.8,3.4-0.8c0.8,0,1.6,0.1,2.3,0.4c0.7,0.2,1.3,0.6,1.8,1c0.5,0.4,0.9,1,1.2,1.6
	c0.3,0.6,0.5,1.3,0.5,2.1c0,0.1,0,0.1,0,0.2s0,0.1,0,0.2h-3.3c0-0.5-0.1-0.9-0.4-1.3c-0.2-0.4-0.5-0.7-0.9-0.9
	c-0.4-0.2-0.8-0.3-1.3-0.3c-0.6,0-1.1,0.1-1.5,0.4c-0.4,0.3-0.7,0.7-0.9,1.3c-0.2,0.6-0.3,1.2-0.3,2.1V26.6z M98.2,30.1
	c-0.5,1-1.2,1.7-2.2,2.3c-0.9,0.5-2.1,0.8-3.4,0.8c-1.3,0-2.5-0.3-3.4-0.8c-1-0.5-1.7-1.3-2.2-2.3s-0.8-2.1-0.8-3.5V25
	c0-1.4,0.2-2.5,0.8-3.5c0.5-1,1.2-1.8,2.2-2.3c1-0.5,2.1-0.8,3.4-0.8c1.4,0,2.5,0.3,3.4,0.8c0.9,0.5,1.7,1.3,2.2,2.3
	c0.5,1,0.8,2.2,0.8,3.5v1.7C99,28,98.7,29.1,98.2,30.1z M95.1,22.8c-0.2-0.6-0.6-1-1-1.3c-0.4-0.3-0.9-0.4-1.5-0.4
	c-0.6,0-1.1,0.1-1.5,0.4c-0.4,0.3-0.8,0.7-1,1.3c-0.2,0.6-0.4,1.3-0.4,2.1v1.7c0,0.8,0.1,1.5,0.4,2.1c0.2,0.6,0.6,1,1,1.3
	c0.4,0.3,0.9,0.4,1.5,0.4c0.6,0,1.1-0.1,1.5-0.4c0.4-0.3,0.8-0.7,1-1.3c0.2-0.6,0.4-1.3,0.4-2.1v-1.7C95.5,24.1,95.4,23.4,95.1,22.8
	z M101.8,32.9V18.6h2.7l5.7,8.5h0.1v-8.5h3.2v14.3h-2.7l-5.8-8.6H105v8.6H101.8z M119.5,32.9V21.4h-3.9v-2.8h11.2v2.8H123v11.5
	H119.5z M137.9,19.2c0.8,0.4,1.4,0.9,1.8,1.6s0.6,1.5,0.6,2.5c0,0.7-0.1,1.4-0.4,1.9c-0.3,0.5-0.6,1-1,1.3c-0.4,0.3-0.8,0.6-1.1,0.8
	l2.9,5.6h-3.8l-2.4-5.1h-2v5.1h-3.4V18.6h6.1C136.1,18.6,137.1,18.8,137.9,19.2z M134.5,25.4c0.7,0,1.2-0.2,1.6-0.5
	c0.4-0.3,0.6-0.9,0.6-1.5c0-0.7-0.2-1.2-0.6-1.6s-1-0.5-1.6-0.5h-2.2v4.2H134.5z M141.7,32.9l4.6-14.3h4.2l4.6,14.3h-3.7l-0.9-3.3
	h-4.4l-0.9,3.3H141.7z M148.2,21.7l-1.5,5.4h3.2l-1.5-5.4H148.2z M159.5,28.8c0,0.2,0.1,0.5,0.2,0.7c0.1,0.2,0.3,0.4,0.5,0.6
	c0.2,0.2,0.5,0.3,0.8,0.4c0.3,0.1,0.7,0.1,1,0.1c0.5,0,1-0.1,1.3-0.2c0.3-0.1,0.6-0.3,0.8-0.6c0.2-0.2,0.3-0.5,0.3-0.8
	c0-0.4-0.2-0.8-0.5-1c-0.4-0.2-0.9-0.4-1.6-0.6l-2-0.4c-0.8-0.2-1.4-0.4-2-0.7c-0.6-0.3-1-0.8-1.3-1.3c-0.3-0.5-0.5-1.2-0.5-2
	c0-0.9,0.2-1.7,0.7-2.4c0.5-0.7,1.1-1.2,2-1.5c0.8-0.4,1.8-0.5,2.9-0.5c1.2,0,2.2,0.2,3,0.6c0.8,0.4,1.4,0.9,1.8,1.6
	c0.4,0.6,0.6,1.3,0.7,2.1h-3.2c0-0.3-0.2-0.6-0.3-0.8c-0.2-0.2-0.4-0.4-0.8-0.6c-0.3-0.2-0.7-0.2-1.2-0.2c-0.7,0-1.2,0.2-1.6,0.5
	c-0.4,0.3-0.6,0.7-0.6,1.1c0,0.4,0.2,0.7,0.5,0.9c0.3,0.2,0.8,0.4,1.4,0.5l2.1,0.4c0.7,0.1,1.4,0.4,2,0.7c0.6,0.3,1.1,0.7,1.4,1.3
	c0.3,0.6,0.5,1.3,0.5,2.1c0,0.9-0.2,1.7-0.7,2.4c-0.4,0.7-1.1,1.2-2,1.6c-0.9,0.4-1.9,0.6-3.2,0.6c-1,0-1.9-0.1-2.6-0.4
	c-0.7-0.2-1.3-0.6-1.8-1c-0.5-0.4-0.8-0.9-1-1.4c-0.2-0.5-0.3-1.1-0.4-1.6H159.5z M173.2,32.9V21.4h-3.9v-2.8h11.2v2.8h-3.9v11.5
	H173.2z M185.2,28.8c0,0.2,0.1,0.5,0.2,0.7c0.1,0.2,0.3,0.4,0.5,0.6c0.2,0.2,0.5,0.3,0.8,0.4c0.3,0.1,0.7,0.1,1,0.1
	c0.5,0,1-0.1,1.3-0.2c0.3-0.1,0.6-0.3,0.8-0.6c0.2-0.2,0.3-0.5,0.3-0.8c0-0.4-0.2-0.8-0.5-1c-0.4-0.2-0.9-0.4-1.6-0.6l-2-0.4
	c-0.8-0.2-1.4-0.4-2-0.7c-0.6-0.3-1-0.8-1.3-1.3c-0.3-0.5-0.5-1.2-0.5-2c0-0.9,0.2-1.7,0.7-2.4c0.5-0.7,1.1-1.2,2-1.5
	c0.8-0.4,1.8-0.5,2.9-0.5c1.2,0,2.2,0.2,3,0.6c0.8,0.4,1.4,0.9,1.8,1.6c0.4,0.6,0.6,1.3,0.7,2.1h-3.2c0-0.3-0.2-0.6-0.3-0.8
	c-0.2-0.2-0.4-0.4-0.8-0.6c-0.3-0.2-0.7-0.2-1.2-0.2c-0.7,0-1.2,0.2-1.6,0.5c-0.4,0.3-0.6,0.7-0.6,1.1c0,0.4,0.2,0.7,0.5,0.9
	c0.3,0.2,0.8,0.4,1.4,0.5l2.1,0.4c0.7,0.1,1.4,0.4,2,0.7c0.6,0.3,1.1,0.7,1.4,1.3c0.3,0.6,0.5,1.3,0.5,2.1c0,0.9-0.2,1.7-0.7,2.4
	c-0.4,0.7-1.1,1.2-2,1.6c-0.9,0.4-1.9,0.6-3.2,0.6c-1,0-1.9-0.1-2.6-0.4c-0.7-0.2-1.3-0.6-1.8-1c-0.5-0.4-0.8-0.9-1-1.4
	c-0.2-0.5-0.3-1.1-0.4-1.6H185.2z M198.5,32.9l-3.7-14.3h3.6l1.8,9.7h0.2l2.3-9.7h2.8l2.4,9.7h0.2l1.8-9.7h3.6L210,32.9h-3.2
	l-2.4-9.2h-0.1l-2.4,9.2H198.5z M215.6,32.9V18.6h3.5v14.3H215.6z M225,32.9V21.4h-3.9v-2.8h11.2v2.8h-3.9v11.5H225z M237.1,26.6
	c0,0.8,0.1,1.5,0.3,2s0.5,1,0.9,1.3c0.4,0.3,0.9,0.4,1.5,0.4c0.5,0,0.9-0.1,1.3-0.3s0.7-0.5,0.9-0.9c0.2-0.4,0.3-0.8,0.3-1.3h3.3
	c0,0.1,0,0.1,0,0.2s0,0.1,0,0.2c0,1-0.3,1.8-0.8,2.6c-0.5,0.7-1.2,1.3-2.1,1.7s-1.9,0.6-3,0.6c-1.3,0-2.5-0.3-3.4-0.8
	c-0.9-0.5-1.6-1.3-2.1-2.3c-0.5-1-0.7-2.2-0.7-3.5V25c0-1.4,0.2-2.5,0.7-3.5c0.5-1,1.2-1.8,2.1-2.3c0.9-0.5,2.1-0.8,3.4-0.8
	c0.8,0,1.6,0.1,2.3,0.4c0.7,0.2,1.3,0.6,1.8,1c0.5,0.4,0.9,1,1.2,1.6c0.3,0.6,0.5,1.3,0.5,2.1c0,0.1,0,0.1,0,0.2s0,0.1,0,0.2h-3.3
	c0-0.5-0.1-0.9-0.4-1.3c-0.2-0.4-0.5-0.7-0.9-0.9c-0.4-0.2-0.8-0.3-1.3-0.3c-0.6,0-1.1,0.1-1.5,0.4c-0.4,0.3-0.7,0.7-0.9,1.3
	c-0.2,0.6-0.3,1.2-0.3,2.1V26.6z M257.1,32.9v-5.9h-5.3v5.9h-3.5V18.6h3.5v5.7h5.3v-5.7h3.5v14.3H257.1z M264.1,29.7
	c0.4-0.3,0.9-0.5,1.5-0.5c0.6,0,1.1,0.2,1.5,0.5c0.4,0.4,0.6,0.8,0.6,1.4c0,0.6-0.2,1.1-0.6,1.4c-0.4,0.3-0.9,0.5-1.5,0.5
	c-0.6,0-1-0.2-1.4-0.5c-0.4-0.3-0.6-0.8-0.6-1.4C263.5,30.6,263.7,30.1,264.1,29.7z M272.7,28.4c0,0.4,0.1,0.7,0.2,1
	s0.3,0.5,0.6,0.6c0.3,0.2,0.6,0.2,0.9,0.2c0.6,0,1.1-0.2,1.3-0.5c0.3-0.4,0.4-0.9,0.4-1.5v-9.5h3.5v9.5c0,1.7-0.5,2.9-1.4,3.8
	s-2.2,1.3-3.8,1.3c-0.9,0-1.6-0.1-2.3-0.4c-0.6-0.3-1.2-0.6-1.6-1.1c-0.4-0.5-0.7-1-0.9-1.6c-0.2-0.6-0.3-1.2-0.3-1.8H272.7z
	 M285.4,28.8c0,0.2,0.1,0.5,0.2,0.7c0.1,0.2,0.3,0.4,0.5,0.6c0.2,0.2,0.5,0.3,0.8,0.4c0.3,0.1,0.7,0.1,1,0.1c0.5,0,1-0.1,1.3-0.2
	c0.3-0.1,0.6-0.3,0.8-0.6c0.2-0.2,0.3-0.5,0.3-0.8c0-0.4-0.2-0.8-0.5-1c-0.4-0.2-0.9-0.4-1.6-0.6l-2-0.4c-0.8-0.2-1.4-0.4-2-0.7
	c-0.6-0.3-1-0.8-1.3-1.3c-0.3-0.5-0.5-1.2-0.5-2c0-0.9,0.2-1.7,0.7-2.4c0.5-0.7,1.1-1.2,2-1.5c0.8-0.4,1.8-0.5,2.9-0.5
	c1.2,0,2.2,0.2,3,0.6c0.8,0.4,1.4,0.9,1.8,1.6c0.4,0.6,0.6,1.3,0.7,2.1h-3.2c0-0.3-0.2-0.6-0.3-0.8c-0.2-0.2-0.4-0.4-0.8-0.6
	c-0.3-0.2-0.7-0.2-1.2-0.2c-0.7,0-1.2,0.2-1.6,0.5c-0.4,0.3-0.6,0.7-0.6,1.1c0,0.4,0.2,0.7,0.5,0.9c0.3,0.2,0.8,0.4,1.4,0.5l2.1,0.4
	c0.7,0.1,1.4,0.4,2,0.7c0.6,0.3,1.1,0.7,1.4,1.3c0.3,0.6,0.5,1.3,0.5,2.1c0,0.9-0.2,1.7-0.7,2.4c-0.4,0.7-1.1,1.2-2,1.6
	c-0.9,0.4-1.9,0.6-3.2,0.6c-1,0-1.9-0.1-2.6-0.4c-0.7-0.2-1.3-0.6-1.8-1c-0.5-0.4-0.8-0.9-1-1.4c-0.2-0.5-0.3-1.1-0.4-1.6H285.4z"/>
<path fill="#EA6C00" d="M54.7,23.4c-1.5-2.6-5.5-3.7-8.9-5.9c-3.5-2.2-6.4-5.5-10.1-6.8c-3.7-1.3-8.2-0.6-11.4,1.7
	C21,14.8,19,18.8,16,22.7c-3,3.9-7.1,7.6-6.6,11s5.6,6.6,8.5,10.7c2.9,4.1,3.6,9.3,6.3,11.2c2.7,1.9,7.5,0.6,11.8-0.2
	c4.3-0.8,8.2-1.1,11.3-2.7c3.2-1.7,5.7-4.7,6.7-8c1.1-3.4,0.6-7,0.9-10.9C55.2,30,56.2,26,54.7,23.4z M31,43.7l-5.4-3.3l-0.1-0.1
	c-0.9-0.6-1.4-1.6-1.4-2.7V26.6l6.5-3.7V34c0,1.2,0.6,2.2,1.5,2.7l0,0l5.2,3.1L31,43.7z M45,40l-6.5,3.7V32.6c0-1.2-0.6-2.2-1.5-2.7
	l0,0l-5.2-3.1l6.2-3.9l5.4,3.3l0.1,0.1c0.9,0.6,1.4,1.6,1.4,2.7V40z"/>
</svg>
